<?xml version="1.0" standalone="no"?>
<!DOCTYPE svg PUBLIC "-//W3C//DTD SVG 20010904//EN"
 "http://www.w3.org/TR/2001/REC-SVG-20010904/DTD/svg10.dtd">
<svg version="1.0" xmlns="http://www.w3.org/2000/svg"
 width="700.000000pt" height="700.000000pt" viewBox="0 0 700.000000 700.000000"
 preserveAspectRatio="xMidYMid meet">
<metadata>
Created by potrace 1.14, written by Peter Selinger 2001-2017
</metadata>
<g transform="translate(0.000000,700.000000) scale(0.100000,-0.100000)"
fill="#000000" stroke="none">
<path d="M3278 6995 c-1 -1 -42 -5 -89 -9 -47 -4 -95 -8 -106 -10 -11 -3 -44
-7 -74 -11 -313 -38 -709 -158 -1024 -311 -180 -87 -448 -247 -555 -331 -8 -6
-51 -40 -95 -74 -342 -266 -650 -623 -875 -1014 -47 -83 -170 -327 -170 -340
0 -3 -9 -24 -20 -48 -57 -123 -157 -435 -186 -582 -2 -11 -10 -54 -19 -95 -29
-147 -36 -200 -52 -370 -10 -109 -10 -510 0 -619 116 -1299 963 -2438 2179
-2930 308 -124 608 -199 948 -236 30 -3 177 -8 325 -10 305 -4 494 11 725 60
767 161 1415 536 1934 1118 227 255 453 606 571 887 15 36 35 83 45 105 53
119 146 416 176 560 17 81 54 301 59 350 4 33 9 71 11 85 9 47 11 525 4 605
-16 169 -22 220 -25 225 -2 3 -6 30 -10 60 -4 30 -22 123 -40 205 -53 232
-102 385 -197 610 -387 911 -1160 1625 -2103 1943 -168 57 -420 119 -555 137
-19 3 -46 7 -60 10 -13 2 -52 7 -86 11 -33 3 -74 8 -90 10 -32 5 -540 14 -546
9z"/>
</g>
</svg>
